# xmcd CD database file
#
# Track frame offsets:
#	150
#	18519
#	27736
#	42351
#	53312
#	74042
#	86387
#	100479
#	114727
#	138318
#	157121
#	176459
#	199417
#	217111
#	232919
#	249889
#
# Disc length: 3359 seconds
#
# Revision: 1
# Processed by: cddbd v1.5.2PL0 Copyright (c) Steve Scherf et al.
# Submitted via: CDex 1.51
#
DISCID=e30d1d10
DTITLE=Lucy Dixon - Me Is You Now
DYEAR=2008
DGENRE=Jazz
TTITLE0=Kill you with kindness
TTITLE1=So blue
TTITLE2=Feet
TTITLE3=Stormy weather
TTITLE4=Leave the man
TTITLE5=Est-ce que ça t'embête
TTITLE6=Small world
TTITLE7=Quitter mon ex
TTITLE8=Think it over
TTITLE9=Me is you now
TTITLE10=Good god
TTITLE11=Fight
TTITLE12=I don't want you
TTITLE13=Words
TTITLE14=Time goes by
TTITLE15=Older
EXTD=YEAR: 2008
EXTT0=
EXTT1=
EXTT2=
EXTT3=
EXTT4=
EXTT5=
EXTT6=
EXTT7=
EXTT8=
EXTT9=
EXTT10=
EXTT11=
EXTT12=
EXTT13=
EXTT14=
EXTT15=
PLAYORDER=
